<?xml version="1.0" standalone="no"?>
<!DOCTYPE svg PUBLIC "-//W3C//DTD SVG 20010904//EN"
 "http://www.w3.org/TR/2001/REC-SVG-20010904/DTD/svg10.dtd">
<svg version="1.0" xmlns="http://www.w3.org/2000/svg"
 width="210.000000pt" height="210.000000pt" viewBox="0 0 210.000000 210.000000"
 preserveAspectRatio="xMidYMid meet">
<metadata>
Created by potrace 1.14, written by Peter Selinger 2001-2017
</metadata>
<g transform="translate(0.000000,210.000000) scale(0.100000,-0.100000)"
fill="#000000" stroke="none">
<path d="M1199 1861 c-85 -26 -139 -93 -139 -173 l0 -33 -67 -3 c-37 -1 -72
-7 -79 -13 -14 -12 -38 -3 -29 11 3 5 1 11 -5 15 -6 4 -8 11 -5 16 4 5 1 9 -4
9 -6 0 -11 6 -11 13 0 15 -45 59 -78 76 -33 17 -141 16 -182 -2 -41 -18 -91
-68 -115 -116 -25 -49 -23 -155 5 -213 19 -41 20 -51 9 -90 -7 -23 -15 -52
-18 -63 -6 -25 -7 -117 -1 -172 3 -23 2 -42 -3 -42 -4 0 -20 -7 -36 -16 -39
-19 -55 -70 -48 -151 7 -88 42 -139 127 -181 36 -18 76 -35 90 -38 14 -2 43
-9 65 -14 22 -6 42 -10 45 -10 5 1 37 -104 46 -151 3 -14 7 -32 10 -41 2 -9
-5 -24 -17 -35 -37 -32 -71 -122 -77 -200 l-4 -72 33 -11 c47 -15 262 -13 284
3 10 7 29 35 44 62 27 48 29 49 79 52 l52 3 0 -56 c0 -70 5 -73 165 -72 176 0
197 6 233 71 17 29 48 71 70 93 46 47 74 95 78 138 2 17 6 45 9 62 6 32 -36
179 -69 240 -13 25 -11 28 33 61 151 114 193 205 142 313 -26 53 -37 68 -75
97 -35 27 -71 28 -112 3 l-31 -19 0 51 c0 29 -3 70 -7 92 -8 48 -58 152 -91
188 -20 21 -24 35 -23 79 2 111 -52 203 -139 232 -49 17 -111 19 -154 7z"/>
</g>
</svg>
